<svg xmlns="http://www.w3.org/2000/svg" viewBox="0 0 180 96">
<defs><linearGradient id="g" x1="0" x2="1"><stop stop-color="#f5f7f8"/><stop offset="1" stop-color="#a3b4c1"/></linearGradient><filter id="s"><feDropShadow dx="0" dy="4" stdDeviation="5" flood-color="#000" flood-opacity=".38"/></filter></defs>
<g filter="url(#s)"><path fill="url(#g)" d="M25 66V31c0-7 5-11 12-11h74c11 0 20 6 25 15l18 27v7H25z"/><path fill="#173248" d="M104 27h11c7 0 13 4 16 10l10 16h-37z"/><path fill="#8599aa" d="M37 28h56v26H37z"/><path fill="#486175" d="M111 57h31v4h-31z"/><path fill="#f5b829" d="M151 56h5v8h-5z"/><circle cx="54" cy="71" r="11" fill="#0a121a"/><circle cx="130" cy="71" r="11" fill="#0a121a"/><circle cx="54" cy="71" r="4" fill="#8b9ba9"/><circle cx="130" cy="71" r="4" fill="#8b9ba9"/></g></svg>