<svg xmlns="http://www.w3.org/2000/svg" viewBox="0 0 180 96">
<defs><linearGradient id="g" x1="0" x2="1"><stop stop-color="#eaf0f4"/><stop offset="1" stop-color="#94a9bd"/></linearGradient><filter id="s"><feDropShadow dx="0" dy="4" stdDeviation="5" flood-color="#000" flood-opacity=".38"/></filter></defs>
<g filter="url(#s)"><path fill="url(#g)" d="M34 67V25h63c8 0 13 6 16 14l7 28z"/><path fill="#153044" d="M44 31h52c3 0 7 4 8 8l3 11H44z"/><path fill="#35556b" d="M48 54h57l-6 8H47z"/><path fill="none" stroke="#7f96a8" stroke-width="2" d="M53 57h45M53 60h42"/><path fill="#dce7ed" d="M119 48h38l10 10v9h-48z"/><path fill="#f4b62a" d="M108 52h7v7h-7z"/><circle cx="58" cy="70" r="12" fill="#0b121a"/><circle cx="139" cy="70" r="12" fill="#0b121a"/><circle cx="58" cy="70" r="5" fill="#899aaa"/><circle cx="139" cy="70" r="5" fill="#899aaa"/></g></svg>